<svg xmlns="http://www.w3.org/2000/svg" viewBox="0 0 800 800"><title>Pizza (illustration)</title><rect width="800" height="800" fill="#F6E1CF"/><circle cx="400" cy="420" r="320" fill="#C08B5C"/><circle cx="400" cy="400" r="320" fill="#D9A36E"/><path d="M400 400L120 400A280 280 0 0 1 400 120z" fill="none"/><circle cx="400" cy="400" r="270" fill="#E8B062"/><circle cx="400" cy="400" r="240" fill="#D9472B"/><g fill="#F7D98C"><path d="M260 330q30-30 70 0t60 30q-40 30-80 10t-50-40z"/><path d="M430 270q40-20 80 10t20 60q-50 0-80-20t-20-50z"/><path d="M470 450q40-10 70 20t0 70q-50-10-70-40t0-50z"/><path d="M300 470q40-20 70 10t10 70q-50 0-70-30t-10-50z"/><path d="M380 380q30-20 60 0t10 40q-40 10-60-10t-10-30z"/></g><g fill="#A82C24"><circle cx="330" cy="260" r="30"/><circle cx="540" cy="360" r="30"/><circle cx="420" cy="520" r="30"/><circle cx="260" cy="420" r="28"/><circle cx="500" cy="230" r="26"/></g><g fill="#3E7B3A"><ellipse cx="380" cy="310" rx="26" ry="13" transform="rotate(-30 380 310)"/><ellipse cx="560" cy="460" rx="26" ry="13" transform="rotate(25 560 460)"/><ellipse cx="300" cy="530" rx="26" ry="13" transform="rotate(10 300 530)"/><ellipse cx="460" cy="400" rx="22" ry="11" transform="rotate(-50 460 400)"/></g><g stroke="#B8763E" stroke-width="5" opacity=".55"><path d="M400 160v480M160 400h480M230 230l340 340M570 230L230 570"/></g></svg>
