<svg xmlns="http://www.w3.org/2000/svg" viewBox="0 0 800 800"><title>Ramen (illustration)</title><rect width="800" height="800" fill="#E8DFD1"/><ellipse cx="400" cy="690" rx="290" ry="50" fill="#000" opacity=".12"/><path d="M110 400h580c0 170-130 290-290 290S110 570 110 400z" fill="#2B2B2B"/><path d="M150 470c40 110 140 180 250 180s210-70 250-180" stroke="#E23744" stroke-width="12" fill="none"/><ellipse cx="400" cy="400" rx="290" ry="80" fill="#3A3A3A"/><ellipse cx="400" cy="402" rx="262" ry="66" fill="#E9B76E"/><g fill="none" stroke="#F6DDA3" stroke-width="9" stroke-linecap="round"><path d="M200 400q30-20 60 0t60 0 60 0"/><path d="M230 425q30-20 60 0t60 0 60 0"/><path d="M380 430q30-20 60 0t60 0"/></g><g><ellipse cx="510" cy="385" rx="54" ry="34" fill="#FFFFFF"/><ellipse cx="510" cy="385" rx="26" ry="18" fill="#F2A93B"/><ellipse cx="585" cy="405" rx="48" ry="30" fill="#FFFFFF"/><ellipse cx="585" cy="405" rx="23" ry="16" fill="#F2A93B"/></g><path d="M260 350l80-26 30 70-82 22z" fill="#1F3B2A"/><g fill="#6FA845"><circle cx="420" cy="380" r="8"/><circle cx="440" cy="400" r="7"/><circle cx="400" cy="408" r="7"/><circle cx="455" cy="372" r="6"/></g><ellipse cx="330" cy="405" rx="44" ry="20" fill="#E58A8A"/><ellipse cx="330" cy="405" rx="30" ry="12" fill="#F3B4B0"/><g stroke="#8A5A33" stroke-width="16" stroke-linecap="round"><path d="M560 120l-140 250"/><path d="M620 140l-150 240"/></g><g stroke="#FFFFFF" stroke-width="7" stroke-linecap="round" fill="none" opacity=".7"><path d="M300 290c-16-24 16-40 0-66M380 270c-16-24 16-40 0-66"/></g></svg>
